#!OML:ASF E:\motion texture\Top Level 1\Subject 1\Session 1\male.ASF
:FULLY-SPECIFIED
:DEGREES
339
root -20.4455 17.7373 2.63406 305.432 -97.7676 -298.266
lowerback -2.92428 1.98175 5.54013
upperback -4.78322 2.50823 2.25343
thorax -3.16495 1.04531 -0.761637
lowerneck -15.2686 -2.14849 -3.69889
upperneck 19.5068 -4.50514 9.72024
head 8.94418 -1.47595 3.36985
rclavicle 6.16854e-015 3.88624e-014
rhumerus -6.51975 -29.871 -36.42
rradius 75.7196
rwrist -15.8724
rhand -18.1796 -27.1832
rfingers 7.12502
rthumb 8.097 -57.008
lclavicle 6.16854e-015 3.88624e-014
lhumerus -11.6211 43.7456 27.8415
lradius 70.2816
lwrist 27.3453
lhand -12.7197 23.1682
lfingers 7.12502
lthumb 13.3634 52.7196
rfemur 3.77218 6.56547 29.0796
rtibia 30.6931
rfoot -9.83929 -9.02808
rtoes -16.2917
lfemur -29.1796 -2.08303 -9.05709
ltibia 20.3892
lfoot -0.970266 6.02579
ltoes -8.521
340
root -20.6294 17.7502 2.65797 307.177 -97.4842 -300.174
lowerback -2.94682 1.9319 5.25886
upperback -4.76673 2.44343 2.11554
thorax -3.1419 1.02291 -0.747521
lowerneck -15.2358 -2.15976 -3.71035
upperneck 19.7054 -4.55283 9.75295
head 9.01084 -1.49564 3.38065
rclavicle -6.00081e-015 -5.397e-014
rhumerus -7.177 -29.0405 -36.5603
rradius 75.5743
rwrist -14.3184
rhand -18.319 -26.8619
rfingers 7.12502
rthumb 7.96243 -56.6919
lclavicle -6.00081e-015 -5.397e-014
lhumerus -12.6607 43.496 27.8921
lradius 70.1998
lwrist 26.3297
lhand -12.8178 22.9905
lfingers 7.12502
lthumb 13.2688 52.5482
rfemur 3.19067 6.08823 28.3532
rtibia 32.6336
rfoot -8.30749 -8.86912
rtoes -16.1833
lfemur -28.7064 -2.02939 -9.76895
ltibia 21.0012
lfoot -0.851333 5.61247
ltoes -6.57369
341
root -20.811 17.7628 2.68314 308.519 -97.2905 -301.738
lowerback -2.90095 1.87617 5.09357
upperback -4.71884 2.37449 2.01356
thorax -3.12232 0.995503 -0.762364
lowerneck -15.2247 -2.16857 -3.72299
upperneck 19.871 -4.58707 9.76573
head 9.06878 -1.51056 3.38586
rclavicle -1.27533e-014 1.23246e-014
rhumerus -7.82837 -28.1362 -36.7495
rradius 75.3943
rwrist -12.8476
rhand -18.3786 -26.5372
rfingers 7.12502
rthumb 7.90489 -56.3694
lclavicle -1.27533e-014 1.23246e-014
lhumerus -13.7728 43.2071 27.9538
lradius 70.0594
lwrist 25.3394
lhand -13.052 22.7557
lfingers 7.12502
lthumb 13.0431 52.3279
rfemur 2.54638 5.55537 27.718
rtibia 34.6689
rfoot -6.42004 -8.77588
rtoes -15.7371
lfemur -28.1217 -1.9281 -10.3761
ltibia 21.5684
lfoot -0.880179 5.216
ltoes -4.76669
342
root -20.9906 17.7744 2.70966 309.763 -97.1586 -303.244
lowerback -2.81022 1.82182 4.99622
upperback -4.64306 2.30962 1.93468
thorax -3.09743 0.96889 -0.791989
lowerneck -15.2193 -2.17639 -3.72713
upperneck 19.9941 -4.6092 9.74925
head 9.11136 -1.52221 3.38023
rclavicle -6.83322e-015 -3.90115e-014
rhumerus -8.47116 -27.1525 -36.9868
rradius 75.1797
rwrist -11.4814
rhand -18.3803 -26.2168
rfingers 7.12502
rthumb 7.90333 -56.049
lclavicle -6.83322e-015 -3.90115e-014
lhumerus -14.9404 42.8962 28.0481
lradius 69.8634
lwrist 24.3856
lhand -13.2096 22.5352
lfingers 7.12502
lthumb 12.8911 52.117
rfemur 1.83463 5.01147 27.1291
rtibia 36.7826
rfoot -4.16862 -8.75474
rtoes -14.8903
lfemur -27.4254 -1.81788 -10.9154
ltibia 22.038
lfoot -1.01029 4.85558
ltoes -3.17506
343
root -21.1683 17.7847 2.7371 311.182 -97.0577 -304.956
lowerback -2.69465 1.77236 4.91395
upperback -4.53792 2.2525 1.86843
thorax -3.05564 0.94691 -0.817173
lowerneck -15.2328 -2.18403 -3.73514
upperneck 20.0794 -4.62063 9.71742
head 9.14335 -1.53027 3.37058
rclavicle 1.09332e-014 2.18663e-015
rhumerus -9.12097 -26.0512 -37.2492
rradius 74.9285
rwrist -10.2812
rhand -18.4354 -25.9318
rfingers 7.12502
rthumb 7.85012 -55.766
lclavicle 1.09332e-014 2.18663e-015
lhumerus -16.1395 42.5766 28.2005
lradius 69.6109
lwrist 23.4721
lhand -13.3792 22.3215
lfingers 7.12502
lthumb 12.7276 51.9136
rfemur 1.06588 4.49537 26.5489
rtibia 38.9456
rfoot -1.59447 -8.79108
rtoes -13.5121
lfemur -26.6268 -1.72492 -11.4314
ltibia 22.3858
lfoot -1.2068 4.55026
ltoes -1.79117
344
root -21.3433 17.7933 2.765 313.095 -96.9518 -307.166
lowerback -2.57037 1.72915 4.78902
upperback -4.41926 2.2044 1.79917
thorax -3.00552 0.931285 -0.821667
lowerneck -15.2522 -2.18604 -3.73779
upperneck 20.1312 -4.61626 9.66717
head 9.16308 -1.53238 3.355
rclavicle 7.68427e-015 -1.63003e-014
rhumerus -9.77967 -24.835 -37.5437
rradius 74.645
rwrist -9.28968
rhand -18.6011 -25.6902
rfingers 7.12502
rthumb 7.69022 -55.5304
lclavicle 7.68427e-015 -1.63003e-014
lhumerus -17.3583 42.2437 28.4228
lradius 69.3011
lwrist 22.5894
lhand -13.4189 22.1401
lfingers 7.12502
lthumb 12.6894 51.7346
rfemur 0.22548 4.03598 25.9307
rtibia 41.1514
rfoot 1.19389 -8.86283
rtoes -11.6746
lfemur -25.7586 -1.66145 -11.9832
ltibia 22.6033
lfoot -1.45304 4.3133
ltoes -0.645424
345
root -21.5161 17.8004 2.79299 315.72 -96.8188 -310.084
lowerback -2.44835 1.68898 4.58322
upperback -4.29497 2.16045 1.71549
thorax -2.95009 0.92029 -0.795741
lowerneck -15.2564 -2.18103 -3.73558
upperneck 20.1489 -4.59667 9.6061
head 9.16661 -1.52889 3.33615
rclavicle -1.81391e-014 -2.08724e-015
rhumerus -10.4465 -23.5106 -37.8831
rradius 74.3312
rwrist -8.49819
rhand -18.8223 -25.5118
rfingers 7.12502
rthumb 7.47672 -55.3596
lclavicle -1.81391e-014 -2.08724e-015
lhumerus -18.5924 41.8967 28.7158
lradius 68.9304
lwrist 21.7524
lhand -13.463 21.9882
lfingers 7.12502
lthumb 12.6468 51.5853
rfemur -0.675519 3.64729 25.2453
rtibia 43.3816
rfoot 4.08541 -8.97348
rtoes -9.27167
lfemur -24.8385 -1.63281 -12.6175
ltibia 22.7096
lfoot -1.76394 4.17437
ltoes 0.187225
346
root -21.6866 17.8061 2.82042 319.284 -96.6477 -313.916
lowerback -2.34573 1.64967 4.26666
upperback -4.17599 2.11663 1.6067
thorax -2.89169 0.91218 -0.733343
lowerneck -15.2386 -2.16653 -3.71378
upperneck 20.1431 -4.56186 9.52607
head 9.15585 -1.51966 3.3089
rclavicle -7.3364e-015 -5.26779e-015
rhumerus -11.1178 -22.1029 -38.2886
rradius 73.9917
rwrist -7.89369
rhand -19.0601 -25.3916
rfingers 7.12502
rthumb 7.2471 -55.2475
lclavicle -7.3364e-015 -5.26779e-015
lhumerus -19.8522 41.5118 29.0611
lradius 68.5023
lwrist 20.9837
lhand -13.488 21.8932
lfingers 7.12502
lthumb 12.6228 51.4918
rfemur -1.65066 3.33354 24.4712
rtibia 45.6269
rfoot 6.90637 -9.19183
rtoes -6.34495
lfemur -23.9108 -1.62212 -13.3699
ltibia 22.7451
lfoot -2.14383 4.13648
ltoes 0.661308
347
root -21.8546 17.8107 2.84702 323.825 -96.4489 -318.694
lowerback -2.2672 1.60632 3.84182
upperback -4.06435 2.06602 1.47111
thorax -2.82996 0.903071 -0.637371
lowerneck -15.2132 -2.14522 -3.67044
upperneck 20.1273 -4.51779 9.42851
head 9.13871 -1.50657 3.2729
rclavicle -3.80176e-015 9.0447e-015
rhumerus -11.7752 -20.6522 -38.7843
rradius 73.6166
rwrist -7.45441
rhand -19.1833 -25.2882
rfingers 7.12502
rthumb 7.12825 -55.1481
lclavicle -3.80176e-015 9.0447e-015
lhumerus -21.1193 41.0986 29.462
lradius 67.9976
lwrist 20.2425
lhand -13.4491 21.8521
lfingers 7.12502
lthumb 12.6603 51.4484
rfemur -2.70251 3.07422 23.6133
rtibia 47.8744
rfoot 9.4663 -9.61946
rtoes -3.25707
lfemur -23.0003 -1.62141 -14.2405
ltibia 22.728
lfoot -2.57844 4.17375
ltoes 0.834598
348
root -22.0202 17.8146 2.87276 329.189 -96.2541 -324.266
lowerback -2.2097 1.5539 3.34244
upperback -3.9572 2.00193 1.31619
thorax -2.76297 0.888489 -0.518828
lowerneck -15.19 -2.11811 -3.61364
upperneck 20.1081 -4.46684 9.32352
head 9.11992 -1.48995 3.23286
rclavicle 4.87644e-015 -3.46879e-014
rhumerus -12.392 -19.1836 -39.3882
rradius 73.1844
rwrist -7.1147
rhand -19.1321 -25.1655
rfingers 7.12502
rthumb 7.17765 -55.0238
lclavicle 4.87644e-015 -3.46879e-014
lhumerus -22.3863 40.6467 29.9186
lradius 67.4018
lwrist 19.5401
lhand -13.3848 21.8696
lfingers 7.12502
lthumb 12.7223 51.462
rfemur -3.82118 2.84192 22.7047
rtibia 50.1054
rfoot 11.6071 -10.2847
rtoes -0.349275
lfemur -22.1152 -1.61836 -15.1948
ltibia 22.6771
lfoot -3.05611 4.24374
ltoes 0.789321
349
root -22.1831 17.8182 2.89739 334.98 -96.0883 -330.238
lowerback -2.16852 1.48806 2.81248
upperback -3.85517 1.91877 1.15548
thorax -2.6931 0.864233 -0.388383
lowerneck -15.1828 -2.0886 -3.53752
upperneck 20.0975 -4.41393 9.20184
head 9.10623 -1.47204 3.18413
rclavicle 1.52132e-014 2.68359e-015
rhumerus -12.9632 -17.713 -40.1003
rradius 72.6736
rwrist -6.83383
rhand -18.9129 -25.0217
rfingers 7.12502
rthumb 7.38924 -54.8726
lclavicle 1.52132e-014 2.68359e-015
lhumerus -23.6381 40.1522 30.4396
lradius 66.6998
lwrist 18.8615
lhand -13.3494 21.9226
lfingers 7.12502
lthumb 12.7564 51.5129
rfemur -5.00377 2.59844 21.7962
rtibia 52.3037
rfoot 13.1929 -11.2013
rtoes 2.07997
lfemur -21.2658 -1.61087 -16.1754
ltibia 22.6056
lfoot -3.55886 4.31722
ltoes 0.620887
350
root -22.3438 17.8222 2.92106 340.642 -95.9701 -336.063
lowerback -2.1332 1.40856 2.31022
upperback -3.75566 1.81672 1.00526
thorax -2.62199 0.82889 -0.262102
lowerneck -15.1915 -2.05604 -3.45423
upperneck 20.0961 -4.35873 9.07791
head 9.09846 -1.45215 3.13387
rclavicle -1.89591e-014 -1.27222e-014
rhumerus -13.4817 -16.2588 -40.9172
rradius 72.0578
rwrist -6.57185
rhand -18.5323 -24.835
rfingers 7.12502
rthumb 7.75662 -54.6727
lclavicle -1.89591e-014 -1.27222e-014
lhumerus -24.8561 39.6087 31.0494
lradius 65.8794
lwrist 18.215
lhand -13.3568 22.0147
lfingers 7.12502
lthumb 12.7492 51.6054
rfemur -6.22779 2.31663 20.9473
rtibia 54.4504
rfoot 14.1458 -12.3095
rtoes 3.88128
lfemur -20.4332 -1.61122 -17.115
ltibia 22.5038
lfoot -4.0546 4.39184
ltoes 0.367809
351
root -22.5024 17.827 2.94376 345.534 -95.8885 -341.113
lowerback -2.09314 1.31035 1.88545
upperback -3.65648 1.68948 0.885771
thorax -2.55233 0.778309 -0.147345
lowerneck -15.2111 -2.02366 -3.38492
upperneck 20.108 -4.30321 8.96121
head 9.09785 -1.43197 3.08877
rclavicle -4.93234e-015 0
rhumerus -13.9653 -14.7704 -41.8107
rradius 71.3217
rwrist -6.34749
rhand -18.1004 -24.6405
rfingers 7.12502
rthumb 8.17341 -54.4624
lclavicle -4.93234e-015 0
lhumerus -26.0269 39.0426 31.7704
lradius 64.9217
lwrist 17.5782
lhand -13.4257 22.1309
lfingers 7.12502
lthumb 12.6828 51.7257
rfemur -7.46512 1.9643 20.2173
rtibia 56.5201
rfoot 14.4871 -13.4933
rtoes 5.15203
lfemur -19.6039 -1.63181 -17.9492
ltibia 22.3797
lfoot -4.53778 4.45999
ltoes 0.0746798
